<svg xmlns="http://www.w3.org/2000/svg">
  <style>
    @import url(youtube.css);
  </style>

  <!--1425 px wide or smaller before mobile view-->
  
  <!--background-->
  <rect id="background" x="0" y="0" opacity=".02" />
  
  <!--sidebar-->
  <rect id="sidebar" x="0" y="0" width="72" fill="#FFF"/>
    <!--home-->
    <rect class="simple-endpoint click-me" x="2" y="56" height="72" width="72" fill="#fff"  />
    <svg class="simple-endpoint-icon-home click-me" x="25" y="66" height="24" viewBox="0 0 24 24" width="24"><path d="M0 0h24v24H0V0z" fill="none"/><path d="M12 3L2 12h3v8h6v-6h2v6h6v-8h3L12 3zm5 15h-2v-6H9v6H7v-7.81l5-4.5 5 4.5V18z"/><path d="M7 10.19V18h2v-6h6v6h2v-7.81l-5-4.5z" opacity=".3"/></svg>
    <text class="simple-endpoint-icon-home" x="24" y="110">Home</text>
    <!-- tranding-->
    <g class="click-me">
      <rect class="simple-endpoint" x="2" y="129" height="72" width="72" fill="#fff"  />
      <svg class="simple-endpoint-icon" x="25" y ="139" height="24" viewBox="0 0 24 24" width="24"><path d="M0 0h24v24H0V0z" fill="none"/><path d="M16.11 6.77c-.53 2.6-2.62 4.43-5.28 4.43-1.56 0-2.96-.62-3.97-1.63C6.3 10.96 6 12.47 6 14c0 3.31 2.69 6 6 6s6-2.69 6-6c0-2.56-.66-5.03-1.89-7.23zm-4.22 11.22c-1.37 0-2.49-1.08-2.49-2.42 0-1.25.81-2.13 2.17-2.41 1.37-.28 2.78-.93 3.57-1.99.3 1 .46 2.05.46 3.12 0 2.04-1.66 3.7-3.71 3.7z" opacity=".3"/><path d="M11.57 13.16c-1.36.28-2.17 1.16-2.17 2.41 0 1.34 1.11 2.42 2.49 2.42 2.05 0 3.71-1.66 3.71-3.71 0-1.07-.15-2.12-.46-3.12-.79 1.07-2.2 1.72-3.57 2zM13.5.67s.74 2.65.74 4.8c0 2.06-1.35 3.73-3.41 3.73-2.07 0-3.63-1.67-3.63-3.73l.03-.36C5.21 7.51 4 10.62 4 14c0 4.42 3.58 8 8 8s8-3.58 8-8C20 8.61 17.41 3.8 13.5.67zM12 20c-3.31 0-6-2.69-6-6 0-1.53.3-3.04.86-4.43 1.01 1.01 2.41 1.63 3.97 1.63 2.66 0 4.75-1.83 5.28-4.43C17.34 8.97 18 11.44 18 14c0 3.31-2.69 6-6 6z"/></svg>
      <text x="18" y="183">Trending</text>
    </g>
    <!--subscriptions-->
    <rect class="simple-endpoint click-me" x="2" y="202" height="72" width="72" fill="#fff"  />
    <svg  class="simple-endpoint-icon click-me" x="25" y="212" height="24" viewBox="0 0 24 24" width="24"><path d="M0 0h24v24H0V0z" fill="none"/><path d="M4 20h16v-8H4v8zm6-7.27L16 16l-6 3.26v-6.53z" opacity=".3"/><path d="M4 6h16v2H4zm2-4h12v2H6zm14 8H4c-1.1 0-2 .9-2 2v8c0 1.1.9 2 2 2h16c1.1 0 2-.9 2-2v-8c0-1.1-.9-2-2-2zm0 10H4v-8h16v8zm-10-7.27v6.53L16 16z"/></svg>
       <text x="6" y="256">Subscriptions</text>
    <!--library-->
    <rect class="simple-endpoint click-me" x="2" y="274" height="72" width="72" fill="#fff"  />
    <svg class="simple-endpoint-icon click-me" x="25" y="284" height="24" viewBox="0 0 24 24" width="24"><path d="M0 0h24v24H0V0z" fill="none"/><path d="M8 16h12V4H8v12zm4-10.5l6 4.5-6 4.5v-9z" opacity=".3"/><path d="M4 6H2v14c0 1.1.9 2 2 2h14v-2H4V6zm16-4H8c-1.1 0-2 .9-2 2v12c0 1.1.9 2 2 2h12c1.1 0 2-.9 2-2V4c0-1.1-.9-2-2-2zm0 14H8V4h12v12zM12 5.5v9l6-4.5z"/></svg>
       <text x="23" y="328">Library</text>
    <!--history-->
    <rect class="simple-endpoint click-me" x="2" y="347" height="72" width="72" fill="#fff"  />
    <svg  class="simple-endpoint-icon click-me" x="25" y="362" height="24" viewBox="0 0 24 24" width="24"><path d="M0 0h24v24H0z" fill="none"/><path d="M13 3c-4.97 0-9 4.03-9 9H1l3.89 3.89.07.14L9 12H6c0-3.87 3.13-7 7-7s7 3.13 7 7-3.13 7-7 7c-1.93 0-3.68-.79-4.94-2.06l-1.42 1.42C8.27 19.99 10.51 21 13 21c4.97 0 9-4.03 9-9s-4.03-9-9-9zm-1 5v5l4.28 2.54.72-1.21-3.5-2.08V8H12z"/></svg>
       <text x="22" y="401">History</text>


<rect id="header-bar" x="0" y="0" height="55" fill="#FFF" />
  <!--menu-->
  <svg class="click-me"  x="25" y="15" height="24" viewBox="0 0 24 24" width="24"><path d="M0 0h24v24H0V0z" fill="none"/><path d="M3 18h18v-2H3v2zm0-5h18v-2H3v2zm0-7v2h18V6H3z"/></svg>
  <!--logo-->
  <svg x="74" y="15" height="79" width="125" clip-rule="evenodd" fill-rule="evenodd" stroke-linejoin="round" stroke-miterlimit="1.41421" viewBox="115 140 560 400"><g fill-rule="nonzero"><path d="m204.829 169.344c-1.469-5.459-5.774-9.764-11.233-11.234-9.974-2.729-49.869-2.729-49.869-2.729s-39.895 0-49.869 2.624c-5.354 1.47-9.764 5.88-11.233 11.339-2.625 9.974-2.625 30.656-2.625 30.656s0 20.787 2.625 30.656c1.469 5.459 5.774 9.764 11.233 11.234 10.079 2.729 49.869 2.729 49.869 2.729s39.895 0 49.869-2.624c5.459-1.47 9.764-5.775 11.233-11.234 2.625-9.974 2.625-30.656 2.625-30.656s.105-20.787-2.625-30.761z" fill="#f00"/><path d="m131.024 219.108 33.175-19.108-33.175-19.108z" fill="#fff"/><g fill="#282828"><path d="m265.092 236.64c-2.52-1.679-4.305-4.304-5.354-7.979-1.05-3.569-1.575-8.399-1.575-14.278v-8.084c0-5.984.63-10.813 1.785-14.488 1.259-3.675 3.149-6.299 5.669-7.979 2.624-1.68 5.984-2.52 10.184-2.52 4.094 0 7.454.84 9.973 2.52 2.52 1.68 4.305 4.409 5.46 7.979 1.154 3.57 1.784 8.399 1.784 14.488v8.084c0 5.984-.525 10.709-1.679 14.383-1.155 3.57-2.94 6.3-5.46 7.979-2.519 1.68-5.984 2.52-10.288 2.52-4.41-.105-7.979-.945-10.499-2.625zm14.173-8.818c.735-1.785 1.05-4.83 1.05-8.924v-17.428c0-3.99-.315-6.929-1.05-8.819s-1.89-2.73-3.674-2.73c-1.68 0-2.94.945-3.57 2.73-.735 1.89-1.05 4.829-1.05 8.819v17.428c0 4.094.315 7.139 1.05 8.924.63 1.784 1.89 2.729 3.675 2.729 1.679 0 2.834-.84 3.569-2.729z"/><path d="m458.898 214.488v2.835c0 3.569.105 6.299.315 8.084s.63 3.149 1.364 3.884c.63.84 1.68 1.26 3.15 1.26 1.89 0 3.15-.735 3.885-2.205.734-1.469 1.049-3.884 1.154-7.349l10.814.63c.105.525.105 1.155.105 1.995 0 5.144-1.365 9.029-4.199 11.549-2.835 2.519-6.825 3.779-11.969 3.779-6.194 0-10.499-1.995-13.018-5.879-2.52-3.885-3.78-9.869-3.78-18.058v-9.764c0-8.399 1.26-14.488 3.885-18.372 2.624-3.885 7.034-5.775 13.228-5.775 4.304 0 7.664.84 9.974 2.415 2.309 1.575 3.884 4.095 4.829 7.349.945 3.36 1.365 7.979 1.365 13.858v9.554h-21.102zm1.574-23.517c-.629.84-1.049 2.1-1.259 3.885-.21 1.784-.315 4.514-.315 8.189v3.989h9.238v-3.989c0-3.57-.105-6.3-.314-8.189-.21-1.89-.735-3.15-1.365-3.885s-1.68-1.155-2.94-1.155c-1.47-.105-2.415.315-3.045 1.155z"/><path d="m234.436 213.438-14.279-51.758h12.494l5.039 23.412c1.26 5.774 2.205 10.709 2.835 14.803h.315c.42-2.94 1.365-7.769 2.835-14.698l5.249-23.517h12.493l-14.488 51.758v24.777h-12.388v-24.777z"/><path d="m333.648 182.362v55.958h-9.868l-1.05-6.824h-.315c-2.625 5.144-6.719 7.769-12.074 7.769-3.674 0-6.404-1.26-8.189-3.674-1.785-2.415-2.624-6.195-2.624-11.444v-41.785h12.598v41.05c0 2.52.315 4.305.84 5.354.525 1.05 1.47 1.575 2.73 1.575 1.049 0 2.099-.315 3.149-1.05 1.05-.63 1.785-1.469 2.205-2.519v-44.41z"/><path d="m398.215 182.362v55.958h-9.869l-1.049-6.824h-.315c-2.625 5.144-6.72 7.769-12.074 7.769-3.674 0-6.404-1.26-8.189-3.674-1.785-2.415-2.625-6.195-2.625-11.444v-41.785h12.599v41.05c0 2.52.315 4.305.84 5.354.525 1.05 1.47 1.575 2.729 1.575 1.05 0 2.1-.315 3.15-1.05 1.05-.63 1.785-1.469 2.205-2.519v-44.41z"/><path d="m367.874 171.864h-12.493v66.351h-12.284v-66.351h-12.493v-10.184h37.27z"/><path d="m439.895 191.286c-.735-3.569-1.995-6.089-3.675-7.664-1.679-1.575-4.094-2.415-7.034-2.415-2.309 0-4.514.63-6.509 1.995-1.995 1.26-3.569 3.045-4.619 5.144h-.105v-29.501h-12.179v79.37h10.394l1.26-5.249h.315c.945 1.89 2.414 3.359 4.409 4.514 1.995 1.05 4.095 1.68 6.509 1.68 4.305 0 7.349-1.995 9.344-5.879 1.995-3.885 3.045-10.079 3.045-18.373v-8.819c-.105-6.404-.42-11.338-1.155-14.803zm-11.549 22.782c0 4.095-.21 7.244-.524 9.554-.315 2.31-.945 3.99-1.68 4.934-.84.945-1.89 1.47-3.15 1.47-1.05 0-1.995-.21-2.835-.735-.839-.525-1.574-1.26-2.099-2.204v-31.706c.42-1.47 1.155-2.73 2.204-3.78 1.05-.945 2.205-1.47 3.36-1.47 1.26 0 2.31.525 2.94 1.47.735 1.05 1.155 2.73 1.469 5.039.315 2.415.42 5.775.42 10.079v7.349z"/></g></g></svg>
  <!--search bar-->
  <rect  x="254" y="10" height="32" width="497" fill="transparent" stroke="#ccc" stroke-width="1"/>
  <text x="264" y="30" id="search" opacity="0.4">Search</text>
  <!--search button-->
  <rect class="click-me" x="675" y="10" height="32" width="79" fill="#f8f8f8" stroke="#d3d3d3" stroke-width="1"/>
  <svg  x="702" y="15" height="24" viewBox="0 0 24 24" width="24"><path d="M15.5 14h-.79l-.28-.27C15.41 12.59 16 11.11 16 9.5 16 5.91 13.09 3 9.5 3S3 5.91 3 9.5 5.91 16 9.5 16c1.61 0 3.09-.59 4.23-1.57l.27.28v.79l5 4.99L20.49 19l-4.99-5zm-6 0C7.01 14 5 11.99 5 9.5S7.01 5 9.5 5 14 7.01 14 9.5 11.99 14 9.5 14z"/><path d="M0 0h24v24H0z" fill="none"/></svg>
  <!--new video-->
  <rect x="779" y="15" height="24" width="48" class="click-me" fill="transparent" />
  <svg class="click-me" x="791" y="15" height="24" viewBox="0 0 24 24" width="24"><path d="M0 0h24v24H0V0z" fill="none"/><path d="M17 10.5V7c0-.55-.45-1-1-1H4c-.55 0-1 .45-1 1v10c0 .55.45 1 1 1h12c.55 0 1-.45 1-1v-3.5l4 4v-11l-4 4zM14 13h-3v3H9v-3H6v-2h3V8h2v3h3v2z"/></svg>
  <!--apps-->
    <rect x="828" y="15" height="24" width="48" class="click-me" fill="transparent" />
  <svg class="click-me" x="840" y="15" height="24" viewBox="0 0 24 24" width="24"><path d="M4 8h4V4H4v4zm6 12h4v-4h-4v4zm-6 0h4v-4H4v4zm0-6h4v-4H4v4zm6 0h4v-4h-4v4zm6-10v4h4V4h-4zm-6 4h4V4h-4v4zm6 6h4v-4h-4v4zm0 6h4v-4h-4v4z"/><path d="M0 0h24v24H0z" fill="none"/></svg>
  <!--settings-->
  <rect x="877" y="15" height="24" width="48" class="click-me" fill="transparent" />
  <svg  x="889" y="15" height="24" viewBox="0 0 24 24" width="24"  fill="rgb(96,96,96)"><g class="style-scope yt-icon">
        <path d="M12 8c1.1 0 2-.9 2-2s-.9-2-2-2-2 .9-2 2 .9 2 2 2zm0 2c-1.1 0-2 .9-2 2s.9 2 2 2 2-.9 2-2-.9-2-2-2zm0 6c-1.1 0-2 .9-2 2s.9 2 2 2 2-.9 2-2-.9-2-2-2z" class="style-scope yt-icon"></path>
      </g></svg>

  <!-- person profile img-->
  <rect class="click-me" id="sign-in-button" x="937" y="10" height="40" width="98" fill="transparent" stroke="rgb(6, 95, 212)" stroke-width="0.5" />
  <svg id="sign-in-profile-icon" x="943" y="18" height="24" viewBox="0 0 22 22" width="26" fill-rule="even-odd" fill="rgb(6, 95, 212)"><path d="M12 2C6.48 2 2 6.48 2 12s4.48 10 10 10 10-4.48 10-10S17.52 2 12 2zm0 3c1.66 0 3 1.34 3 3s-1.34 3-3 3-3-1.34-3-3 1.34-3 3-3zm0 14.2c-2.5 0-4.71-1.28-6-3.22.03-1.99 4-3.08 6-3.08 1.99 0 5.97 1.09 6 3.08-1.29 1.94-3.5 3.22-6 3.22z"/><path d="M0 0h24v24H0z" fill="none"/></svg>
  <text id="sign-in" x="973" y="35" fill="rgb(6, 95, 212)">Sign In</text>

  <text x="95" y="115" class="h2">Recommended</text>

  <!--video placeholder-->
  <!--row 1-->
  <g class="shimmer-wrapper">
  <rect class="video animate" x="95" y="140" fill="#606060" height="165" width="300" />
  <circle class="profile animate" cx="111" cy="333" r="16" />  
  <rect class="descr animate" x="145" y="317" height="45" width="250" />
</g>
  <g class="shimmer-wrapper">
   <rect class="video animate" x="410" y="140" fill="#606060" height="165" width="300" />
  <circle class="profile animate" cx="426" cy="333" r="16" />  
  <rect class="descr animate" x="460" y="317" height="45" width="250" />
</g>
  <g class="shimmer-wrapper">
   <rect  class="video animate" x="725" y="140" fill="#606060" height="165" width="300" />
  <circle class="profile animate" cx="741" cy="333" r="16" />  
  <rect class="descr animate" x="775" y="317" height="45" width="250" />
</g>
  <!-- row 2-->
    <g class="shimmer-wrapper">
 <rect class="video animate" x="95" y="402" fill="#606060" height="165" width="300" />
  <circle class="profile animate" cx="111" cy="595" r="16" />  
  <rect class="descr animate" x="145" y="579" height="45" width="250" />
</g>
  <g class="shimmer-wrapper">
   <rect class="video animate" x="410" y="402" fill="#606060" height="165" width="300" />
  <circle class="profile animate" cx="426" cy="595" r="16" />  
  <rect class="descr animate" x="460" y="579" height="45" width="250" />
</g>
  <g class="shimmer-wrapper">
   <rect  class="video animate" x="725" y="402" fill="#606060" height="165" width="300" />
  <circle class="profile animate" cx="741" cy="595" r="16" />  
  <rect class="descr animate" x="775" y="579" height="45" width="250" />
</g>
 </svg>